{"title":"Arunachalam (1997) DvdRip Telugu Movie - teluguppls","uid":6509858,"size":736305271,"categoryP":"video","categoryS":"movies","magnet":"?xt=urn:btih:4c9b4a9f82dbb2d68d48c0e5b6b2c4a08c59c737&amp;dn=Arunachalam+%281997%29+DvdRip+Telugu+Movie+-+teluguppls&amp;tr=udp%3A%2F%2Ftracker.openbittorrent.com%3A80&amp;tr=udp%3A%2F%2Fopen.demonii.com%3A1337&amp;tr=udp%3A%2F%2Ftracker.coppersurfer.tk%3A6969&amp;tr=udp%3A%2F%2Fexodus.desync.com%3A6969","seeders":1,"leechers":2,"uploader":"n1212","files":2,"time":1309582357,"description":"General\n\nFormat                           : MPEG-4\nFormat profile                   : Base Media\nCodec ID                         : isom\nFile size                        : 702 MiB\nDuration                         : 2h 40mn\nOverall bit rate                 : 610 Kbps\n\n\nVideo\n\nFormat                           : AVC\nDuration                         : 2h 40mn\nBit rate mode                    : Variable\nBit rate                         : 542 Kbps\nMaximum bit rate                 : 2 414 Kbps\nWidth                            : 608 pixels\nHeight                           : 288 pixels\nDisplay aspect ratio             : 2.2:1\nFrame rate mode                  : Constant\nFrame rate                       : 29.970 fps\nColor space                      : YUV\nChroma subsampling               : 4:2:0\nBit depth                        : 8 bits\nScan type                        : Progressive\nBits/(Pixel*Frame)               : 0.103\nStream size                      : 624 MiB (89%)\nWriting library                  : x264 core 80 r1376M 3feaec2\n\n\nAudio\n\nFormat                           : AAC\nDuration                         : 2h 40mn\nBit rate mode                    : Variable\nBit rate                         : 64.0 Kbps\nMaximum bit rate                 : 73.2 Kbps\nChannel(s)                       : 2 channels\nChannel positions                : Front: L R\nSampling rate                    : 48.0 KHz\nCompression mode                 : Lossy\nStream size                      : 73.7 MiB (10%)\n\n\nPLEASE SEEEEEEEEEEEDDDDDDDDDDDDDDDDDD......................\n\nPOST A COMMENT.....................","torrent":{"xt":"urn:btih:4c9b4a9f82dbb2d68d48c0e5b6b2c4a08c59c737","amp;dn":"Arunachalam+%281997%29+DvdRip+Telugu+Movie+-+teluguppls","amp;tr":["udp%3A%2F%2Ftracker.openbittorrent.com%3A80","udp%3A%2F%2Fopen.demonii.com%3A1337","udp%3A%2F%2Ftracker.coppersurfer.tk%3A6969","udp%3A%2F%2Fexodus.desync.com%3A6969"],"infoHash":"4c9b4a9f82dbb2d68d48c0e5b6b2c4a08c59c737","infoHashBuffer":{"type":"Buffer","data":[76,155,74,159,130,219,178,214,141,72,192,229,182,178,196,160,140,89,199,55]},"announce":[],"urlList":[]}}